<svg width="304" height="169.514" xmlns="http://www.w3.org/2000/svg">
 <defs>
  <style>.cls-1 {
        fill: #59595b;
      }

      .cls-1, .cls-2 {
        fill-rule: evenodd;
      }

      .cls-2 {
        fill: #ef9221;
      }

      .cls-3 {
        font-size: 12px;
        font-family: COCOMAT-Light, COCOMAT Light;
      }

      .cls-4 {
        letter-spacing: -0.077em;
      }

      .cls-5 {
        letter-spacing: -0.021em;
      }</style>
 </defs>
 <title>KMITL_IC_Logo</title>
 <g>
  <title>background</title>
  <rect x="-1" y="-1" width="306" height="171.514" id="canvas_background" fill="none"/>
 </g>
 <g>
  <title>Layer 1</title>
  <g stroke="null" id="svg_1">
   <path stroke="null" class="cls-1" d="m152.711626,132.551213c3.376671,-6.542566 6.768245,-13.11068 10.487693,-20.321768c10.198142,13.444941 22.8894,21.267065 39.883465,20.449511a44.216079,44.216079 0 0 0 42.016772,-43.749817a44.558855,44.558855 0 0 0 -41.8869,-44.035109c-23.679277,-1.011298 -44.265047,16.095606 -45.44241,39.655657c-1.14117,22.795722 -7.690123,42.276515 -26.302265,56.60927a64.614492,64.614492 0 0 1 -73.269074,3.928094c7.389927,-8.124449 12.114286,-16.555481 27.104916,-13.474748c26.721687,5.490816 48.037721,-13.785589 50.011349,-41.665479c2.510148,-35.50827 21.198936,-58.819222 52.615175,-65.615145c30.852041,-6.674567 63.070932,11.017826 74.516696,40.920312a65.968567,65.968567 0 0 1 -28.891188,80.814422c-27.077238,15.478182 -62.042601,9.653106 -80.844228,-13.5152z" id="svg_2"/>
   <path stroke="null" class="cls-1" d="m35.513895,121.412031c-17.730716,-24.215797 -10.892212,-63.205062 14.698951,-83.758896a64.671976,64.671976 0 0 1 89.549908,7.296249c-3.282993,6.60005 -6.693728,13.434296 -10.289691,20.65177c-13.261843,-16.970645 -29.836485,-25.10574 -51.286649,-18.556786a44.026593,44.026593 0 0 0 -30.517781,45.872478c1.424333,17.25168 1.424333,17.25168 -12.154738,28.495185z" id="svg_3"/>
   <path stroke="null" class="cls-2" d="m89.960052,96.593713c0.240582,3.257444 -1.967241,5.201265 -3.949385,7.196184q-20.998805,21.137193 -42.048707,42.233934c-3.527833,3.551253 -7.464444,6.410565 -11.826864,1.931047c-4.307065,-4.419905 -1.441366,-8.373548 2.08008,-11.882219q21.107387,-21.034999 42.201999,-42.089159c2.533568,-2.518664 5.271524,-4.984102 9.318845,-3.055185a6.732051,6.732051 0 0 1 4.224032,5.665398z" id="svg_4"/>
  </g>
 </g>
</svg>